<svg class="animated" id="freepik_stories-climbing" xmlns="http://www.w3.org/2000/svg" viewBox="0 0 500 500" version="1.1" xmlns:xlink="http://www.w3.org/1999/xlink" xmlns:svgjs="http://svgjs.com/svgjs"><style>svg#freepik_stories-climbing:not(.animated) .animable {opacity: 0;}svg#freepik_stories-climbing.animated #freepik--Character--inject-2 {animation: 6s Infinite  linear floating;animation-delay: 0s;}            @keyframes floating {                0% {                    opacity: 1;                    transform: translateY(0px);                }                50% {                    transform: translateY(-10px);                }                100% {                    opacity: 1;                    transform: translateY(0px);                }            }        </style><g id="freepik--background-simple--inject-2" class="animable" style="transform-origin: 249.7px 250.46px;"><path d="M218,468.39c42.09-.08,92.57-13.43,119.15-48.71,40.16-53.32,91.16-42.54,126.54-151.61a231,231,0,0,0,10.43-49,192.44,192.44,0,0,0,.84-24.53C472.84,122.4,429.06,68.9,371.54,44.46c-75.64-32.15-132.26,7.93-166.7,34.86s-133.29,38.1-168.92,145a224.34,224.34,0,0,0-10.74,50.33c-3.58,39.11,4.29,83.13,27.59,115.67q2.64,3.66,5.49,7.18C95.5,443.32,160.62,468.5,218,468.39Z" style="fill: rgb(146, 227, 169); transform-origin: 249.7px 250.46px;" id="el90hcpvyyga4" class="animable"></path><g id="elvd4khsx62u9"><path d="M218,468.39c42.09-.08,92.57-13.43,119.15-48.71,40.16-53.32,91.16-42.54,126.54-151.61a231,231,0,0,0,10.43-49,192.44,192.44,0,0,0,.84-24.53C472.84,122.4,429.06,68.9,371.54,44.46c-75.64-32.15-132.26,7.93-166.7,34.86s-133.29,38.1-168.92,145a224.34,224.34,0,0,0-10.74,50.33c-3.58,39.11,4.29,83.13,27.59,115.67q2.64,3.66,5.49,7.18C95.5,443.32,160.62,468.5,218,468.39Z" style="fill: rgb(255, 255, 255); opacity: 0.7; transform-origin: 249.7px 250.46px;" class="animable"></path></g></g><g id="freepik--Clouds--inject-2" class="animable animator-active" style="transform-origin: 153.779px 157.189px;"><path d="M229.52,64.52C210.46,31,151.08,31.31,151.08,77.68c0,9.5-22.79,0-31.33,12.34s1,19.94-10.45,23.74S97,108.06,82.72,109s-12.35,14.25-17.1,18-4.74,1.9-15.19,2.85-12.34,8.55-12.34,8.55H287.81s9.49-28.49-7.6-38.93-17.09,3.8-30.38-1.9c-11-4.71-13-13.64-16.11-23.11-.35-1.08-.72-2.16-1.11-3.25s-.77-2-1.21-3" style="fill: none; stroke: rgb(178, 178, 178); stroke-linecap: round; stroke-linejoin: round; transform-origin: 164.264px 89.6637px;" id="elc8w8tqjdod" class="animable"></path><path d="M190.8,114c-2.33-2.86-4.69-7.09-13.34-5.24-13.17,2.82-8,16-14.11,18.81s-6.11-7.52-14.58-4.23-8,9.4-8,9.4" style="fill: none; stroke: rgb(178, 178, 178); stroke-linecap: round; stroke-linejoin: round; transform-origin: 165.783px 120.524px;" id="elq8xfvaafoh" class="animable"></path><path d="M242.35,128.06s5.18-16-7.52-27.75-25.87-5.17-29.63,0-3.76,15-9.87,16a4.14,4.14,0,0,1-1.54,0" style="fill: none; stroke: rgb(178, 178, 178); stroke-linecap: round; stroke-linejoin: round; transform-origin: 218.593px 110.9px;" id="elrz60mznyvco" class="animable"></path><path d="M118.54,120.33c-6.5,3.6-6,8.24-6,8.24" style="fill: none; stroke: rgb(178, 178, 178); stroke-linecap: round; stroke-linejoin: round; transform-origin: 115.536px 124.45px;" id="elgxhkpjhw2dn" class="animable"></path><path d="M174.81,96.11A23.8,23.8,0,0,0,150.73,94c-13.62,6.28-7.34,19.37-13.62,22.51-5.27,2.64-8.34.48-13.83,1.89" style="fill: none; stroke: rgb(178, 178, 178); stroke-linecap: round; stroke-linejoin: round; transform-origin: 149.045px 105.04px;" id="elc858jyxc66" class="animable"></path><path d="M117.16,240.74c-.18-.55-.37-1.1-.57-1.66-7.37-20.52-41.7-21.93-41.7,3.28,0,4.86-11.66,0-16,6.32s.48,10.2-5.34,12.14-6.32-2.91-13.6-2.43-6.32,7.29-8.75,9.23-2.42,1-7.77,1.46-6.31,4.37-6.31,4.37H144.83s4.85-14.57-3.89-19.91-8.74,1.94-15.54-1C119.78,250.16,118.73,245.59,117.16,240.74Z" style="fill: none; stroke: rgb(178, 178, 178); stroke-linecap: round; stroke-linejoin: round; transform-origin: 81.646px 248.507px;" id="elc395x4tij7h" class="animable"></path><path d="M121.58,268.13s2.64-8.17-3.85-14.19-13.23-2.64-15.16,0-1.92,7.7-5,8.18-2.4-5.29-9.14-3.85-4.09,8.18-7.22,9.62-3.12-3.84-7.45-2.16-4.09,4.81-4.09,4.81" style="fill: none; stroke: rgb(178, 178, 178); stroke-linecap: round; stroke-linejoin: round; transform-origin: 95.8895px 260.558px;" id="eldw3qw4yesz7" class="animable"></path><path d="M87,251.79a12.2,12.2,0,0,0-12.32-1.07c-7,3.21-3.75,9.91-7,11.52s-4.82-.27-8.84,1.6-3.75,4.56-3.75,4.56" style="fill: none; stroke: rgb(178, 178, 178); stroke-linecap: round; stroke-linejoin: round; transform-origin: 71.0431px 258.966px;" id="el73ix42k0n87" class="animable"></path><path d="M188.11,218.42c-.1-.3-.2-.6-.31-.91-4.06-11.28-22.93-12.06-22.93,1.81,0,2.67-6.41,0-8.81,3.47s.26,5.61-2.94,6.67-3.47-1.6-7.48-1.33-3.47,4-4.81,5.07-1.33.54-4.27.8-3.47,2.41-3.47,2.41h70.23s2.67-8-2.13-10.95-4.81,1.07-8.55-.54C189.55,223.6,189,221.09,188.11,218.42Z" style="fill: none; stroke: rgb(178, 178, 178); stroke-linecap: round; stroke-linejoin: round; transform-origin: 168.575px 222.695px;" id="el1wbmqr2gatp" class="animable"></path><path d="M190.54,233.48a7.85,7.85,0,0,0-2.12-7.8c-3.57-3.31-7.27-1.45-8.33,0s-1.06,4.23-2.78,4.5-1.32-2.91-5-2.12-2.25,4.5-4,5.29-1.72-2.11-4.1-1.19-2.25,2.65-2.25,2.65" style="fill: none; stroke: rgb(178, 178, 178); stroke-linecap: round; stroke-linejoin: round; transform-origin: 176.397px 229.321px;" id="el2js4sm5a607" class="animable"></path><path d="M171.54,224.5a6.68,6.68,0,0,0-6.77-.59c-3.83,1.77-2.06,5.45-3.83,6.33s-2.65-.14-4.86.89-2.06,2.5-2.06,2.5" style="fill: none; stroke: rgb(178, 178, 178); stroke-linecap: round; stroke-linejoin: round; transform-origin: 162.779px 228.442px;" id="elfkydga7gmos" class="animable"></path></g><g id="freepik--Mountains--inject-2" class="animable" style="transform-origin: 253.282px 258.24px;"><path d="M251.84,296.87l-8,.89-8.94,8-7.14,2.68-6.26-1.78-23.23,17L167,260.24H127.65l-9.83-16.09-14.3,2.68-72,98.45a146.58,146.58,0,0,0,21.26,45.08q2.64,3.66,5.49,7.18c37.24,45.78,102.36,71,159.74,70.85,27.74-.05,59.13-5.87,84.91-19.93Z" style="fill: rgb(181, 181, 181); transform-origin: 167.22px 356.27px;" id="el7pi4hqjk6t8" class="animable"></path><polygon points="127.64 260.24 117.82 244.15 103.52 246.83 46.73 324.47 46.06 327.56 80.06 288.56 83.06 308.56 93.06 301.56 95.06 306.56 112.06 290.56 119.06 345.56 138.06 328.56 144.06 344.56 162.06 332.56 168.06 346.56 178.06 325.56 180.06 333.56 190.06 315.56 198.23 323.67 166.96 260.24 127.64 260.24" style="fill: rgb(255, 255, 255); transform-origin: 122.145px 295.355px;" id="elepwd7fqda4n" class="animable"></polygon><polygon points="227.06 365.56 233.06 348.56 239.06 360.56 252.06 335.56 264.06 365.56 268.13 345.22 251.84 296.87 243.8 297.76 234.87 305.8 227.72 308.49 221.46 306.7 198.23 323.67 150.06 372.56 192.06 354.56 194.06 372.56 199.06 373.56 214.06 354.56 218.06 369.56 227.06 365.56" style="fill: rgb(255, 255, 255); transform-origin: 209.095px 335.215px;" id="elxa5a3rqd0w" class="animable"></polygon><path d="M221.81,342.45l-4,21-1.7,14.78L215,397l-14.21.57,11.94,51.17-68,6.89A222.88,222.88,0,0,0,218,468.39c27.74-.05,59.13-5.87,84.91-19.93L251.84,296.87l-6.15,35.91Z" style="fill: rgb(76, 76, 76); transform-origin: 223.82px 382.63px;" id="eliw5gsrna4y" class="animable"></path><polygon points="116.64 246.37 107.54 260.01 113.8 263.99 110.39 276.5 127.64 260.24 116.64 246.37" style="fill: rgb(76, 76, 76); transform-origin: 117.59px 261.435px;" id="el4spfwnuqut" class="animable"></polygon><polygon points="166.96 260.24 160.41 276.5 148.47 277.64 160.41 324.82 155.87 345.86 139.95 308.9 143.93 370.3 145.06 377.69 198.23 323.67 166.96 260.24" style="fill: rgb(76, 76, 76); transform-origin: 169.09px 318.965px;" id="eleoyd5b5d4be" class="animable"></polygon><polygon points="200.78 397.59 188.72 411.61 183.09 438.05 173.53 417.8 197.71 386.31 193.78 397.56 200.78 397.59" style="fill: rgb(76, 76, 76); transform-origin: 187.155px 412.18px;" id="el0xymi3u61ue" class="animable"></polygon><path d="M80.17,417.24l-.81,1.7q5.16,4.37,10.66,8.38l45.27-42.7-6.19-4.5-16.87,9L110.54,379l-5.06,14.62-5.62,1.12,5.06-34.87Z" style="fill: rgb(76, 76, 76); transform-origin: 107.325px 393.595px;" id="el07rk8kmpw27s" class="animable"></path><path d="M474.12,219.1a192.44,192.44,0,0,0,.84-24.53c-2-68.79-41.89-120.61-95.43-146.48-7.22,6.58-15.4,14.54-16.13,17.47-1.34,5.34-1.34,13.34-1.34,16s-13.33,48.67-13.33,48.67-26,17.33-27.33,20-4,20.67-5.34,22.67-2,15.33-2,15.33l-12.66,8,2,31.33,14.66,34.67-13.33,35.33-8,22.34,7.33,23.66,2.67,16.67-6.67,7.33-20.66,10-14,10-5.34,15.34s2.67,16.66.67,16.66-18.67,8-18.67,8l-10,12-17.13,28.8,3.07,0c42.09-.08,92.57-13.43,119.15-48.71,40.16-53.32,91.16-42.54,126.54-151.61A231,231,0,0,0,474.12,219.1Z" style="fill: rgb(110, 110, 110); transform-origin: 344.987px 258.225px;" id="eltlmjmf3od4" class="animable"></path><path d="M474.12,219.1a192.44,192.44,0,0,0,.84-24.53c-1.45-49.2-22.26-89.72-53.59-118.27l-6.31,34.26-17,20,27-22,13,9,5,17-40,106-10,1,8,20,16,6-22,78-13-11-33.39,71.7c38-38.93,82.94-39.31,115-138.19A231,231,0,0,0,474.12,219.1Z" style="fill: rgb(38, 50, 56); stroke: rgb(38, 50, 56); stroke-miterlimit: 10; transform-origin: 411.857px 241.28px;" id="el5t3h8kxh2uv" class="animable"></path><polyline points="408.06 301.56 358.84 305.88 345.06 335.56 357.15 299.98 421.06 296.56" style="fill: rgb(38, 50, 56); stroke: rgb(38, 50, 56); stroke-miterlimit: 10; transform-origin: 383.06px 316.06px;" id="el6yt8s04p09" class="animable"></polyline></g><g id="freepik--Character--inject-2" class="animable" style="transform-origin: 316.708px 215.974px;"><path d="M261.56,99.56s2.5,7.25,13.5,4.5,13.75-15.25,23-17.5,13,.5,11.25,5.25-.75,9.25,9,5.75,19.25-14.75,24.5-3.75-1.75,19.5-12.25,36.75-26.75,25.75-50.25,27-35.5-11-41.75-20.5-6.5-26.25-6.5-26.25l26-14.75Z" style="fill: rgb(38, 50, 56); stroke: rgb(38, 50, 56); stroke-miterlimit: 10; transform-origin: 288.328px 121.705px;" id="elnnx5exk5av" class="animable"></path><path d="M259.19,136.66A116.24,116.24,0,0,1,249,147.93c-5.85,5.63-9.32,13.44-8.45,20.37s10.4,10.62,16,13.44,20.15,12.78,22.1,15.17,3.69,6.72,3.25,8.23-4.11,15-4.55,15.61-1.73,4.11-.86,11.27,18,8.23,29.47,5,22.54-16.47,21.89-25.36-6.07-16.47-6.94-21.88-10.62-26.88-11.05-29.26-4.33-19.29-4.33-19.29A36.91,36.91,0,0,0,296,131a80.1,80.1,0,0,0-14.09-7.81s-8.23,2.39-10.18,3.47S259.19,136.66,259.19,136.66Z" style="fill: rgb(255, 255, 255); stroke: rgb(38, 50, 56); stroke-miterlimit: 10; transform-origin: 284.147px 180.972px;" id="eljwuvo0qrcrp" class="animable"></path><path d="M254.2,137.74s2.39,4.55,3,6.29c.87,2.31,9.1-1.3,13.65-6.5s5-7.81,3.9-10-10.18-8.24-10.18-8.24-3.47,9.54-5.64,12.36S254.2,137.74,254.2,137.74Z" style="fill: rgb(255, 255, 255); stroke: rgb(38, 50, 56); stroke-miterlimit: 10; transform-origin: 264.727px 132.016px;" id="el02cwvkuujuh4" class="animable"></path><path d="M230.54,117.7s4.77,8.81,8.07,12.47S255.85,141.91,261,139s5.87-12.84,5.5-19.08-8.8-15.41-8.8-15.41Z" style="fill: rgb(255, 255, 255); stroke: rgb(38, 50, 56); stroke-miterlimit: 10; transform-origin: 248.561px 122.065px;" id="elve8nywj5szc" class="animable"></path><path d="M265.58,119.68s1.34,8,0,11.4A48.63,48.63,0,0,1,261,139s10.17-4.78,6.15-21.09Z" style="fill: rgb(150, 150, 150); stroke: rgb(38, 50, 56); stroke-miterlimit: 10; transform-origin: 264.545px 128.455px;" id="elqkrumczotv" class="animable"></path><path d="M254.85,106.75s7.81,16,9.11,16.26,5-2.6,5.2-5.2-6.29-15.61-6.29-15.61Z" style="fill: rgb(150, 150, 150); stroke: rgb(38, 50, 56); stroke-miterlimit: 10; transform-origin: 262.007px 112.613px;" id="elqw7ruaeulum" class="animable"></path><polyline points="242.5 119.54 246.4 129.51 250.52 127.34" style="fill: none; stroke: rgb(38, 50, 56); stroke-miterlimit: 10; transform-origin: 246.51px 124.525px;" id="el2yoiyfzxzkj" class="animable"></polyline><path d="M250.74,131.24s5.85-1.3,6.72-7.37" style="fill: none; stroke: rgb(38, 50, 56); stroke-miterlimit: 10; transform-origin: 254.1px 127.555px;" id="else6qmyulq28" class="animable"></path><path d="M249.5,118.29c.58.84.73,1.74.33,2s-1.18-.19-1.76-1-.72-1.73-.33-2S248.92,117.45,249.5,118.29Z" style="fill: rgb(38, 50, 56); transform-origin: 248.787px 118.787px;" id="ellazfdqadsmj" class="animable"></path><path d="M239.79,122.73c.57.84.72,1.74.33,2s-1.18-.19-1.76-1-.73-1.74-.33-2S239.21,121.89,239.79,122.73Z" style="fill: rgb(38, 50, 56); transform-origin: 239.071px 123.229px;" id="eloj66qti9w2" class="animable"></path><path d="M226.14,120.27s23.48-5.14,42.56-20.91c0,0-6.24-14.68-21.28-16.51S222.47,90.18,221,101.92,226.14,120.27,226.14,120.27Z" style="fill: rgb(146, 227, 169); stroke: rgb(38, 50, 56); stroke-miterlimit: 10; transform-origin: 244.743px 101.443px;" id="el3g0mwmnbmd2" class="animable"></path><path d="M280.86,123.66s9.54-7.59,16.9-9.32,21,0,21,0l15.38-.22s5.42-3.9,8.89-5.2,30.34-11.7,30.34-11.7l2-2s11.49-5.85,12.57-6.94,5-1.73,6.93-1.08,4.34,4.33,4.56,7.58-6.07,5.64-12.14,8a115.94,115.94,0,0,1-11.92,3.9s-31.42,21-34.24,22.54-8.45,1.3-9.75,1.52-26.66,1.73-26.66,1.73l-.87,7.37-23.62-13.44Z" style="fill: rgb(255, 255, 255); stroke: rgb(38, 50, 56); stroke-miterlimit: 10; transform-origin: 339.833px 113.389px;" id="elbwnbqs50iad" class="animable"></path><path d="M249.2,152s-2.49-2.94-7.23,3.16-5.42,10.83-7,20.54-1.12,24.15-.67,30.47.9,17.84,2.48,26.64,7.45,26.86,7.45,26.86-.9,7.45.23,10.39,3.83,5.41,4.28,7.22,3.84,5.64,6.32,5.42,9.94.22,10.39-1.81-2.26-2.48-3.16-2.48-4.29-.45-4.29-.45-2.48-2-2.48-3.62-1.58-7-.23-7.22,4.52,6.32,5.19,8.35,2.94,2.94,3.16-.45-2-10.38-2-11.06-2.48-5.42-4.51-6.55-7.45-3.61-7.45-3.61V231.41c0-7.9-2-23.92-2-23.92s5.86-28.67,7.22-31.83,3.61-5.19,1.13-12.19A35.63,35.63,0,0,0,249.2,152Z" style="fill: rgb(255, 255, 255); stroke: rgb(38, 50, 56); stroke-miterlimit: 10; transform-origin: 249.686px 217px;" id="elwsfw7q2hcqh" class="animable"></path><path d="M262.29,278.37c-.9,0-4.29-.45-4.29-.45s-2.48-2-2.48-3.62-1.58-7-.23-7.22,4.52,6.32,5.19,8.35,2.94,2.94,3.16-.45-2-10.38-2-11.06-2.48-5.42-4.51-6.55-7.45-3.61-7.45-3.61v-.56A12.29,12.29,0,0,0,243.4,257c.51,1.61.83,2.59.83,2.59s-.9,7.45.23,10.39,3.83,5.41,4.28,7.22,3.84,5.64,6.32,5.42,9.94.22,10.39-1.81S263.19,278.37,262.29,278.37Z" style="fill: rgb(146, 227, 169); stroke: rgb(38, 50, 56); stroke-miterlimit: 10; transform-origin: 254.45px 267.915px;" id="elq3wrao1n9" class="animable"></path><path d="M394.85,87.25c-2-.65-5.85,0-6.93,1.08-.82.82-7.63,4.39-10.87,6.06l5.61,10.14c1.45-.49,3-1,4.61-1.68,6.07-2.38,12.35-4.77,12.14-8S396.8,87.9,394.85,87.25Z" style="fill: rgb(146, 227, 169); stroke: rgb(38, 50, 56); stroke-miterlimit: 10; transform-origin: 388.233px 95.7603px;" id="el5ohleg93t4x" class="animable"></path><path d="M305.69,177.56a9.38,9.38,0,1,0,9.37,9.38A9.38,9.38,0,0,0,305.69,177.56Zm0,16.5a7.13,7.13,0,1,1,7.12-7.12A7.13,7.13,0,0,1,305.69,194.06Z" style="fill: rgb(255, 255, 255); stroke: rgb(38, 50, 56); stroke-miterlimit: 10; transform-origin: 305.68px 186.94px;" id="elxeqs6k2rqj" class="animable"></path><path d="M304.4,310.56l2.66,13.34-.66,1.33a55.8,55.8,0,0,0-11.67,23.33c-3.33,14.34,1.33,36.67,1.33,36.67l9,3.33s15.67-50,19.67-57.66,8.67-27.34,8.67-27.34S311.4,314.23,304.4,310.56Z" style="fill: rgb(255, 255, 255); stroke: rgb(38, 50, 56); stroke-miterlimit: 10; transform-origin: 313.465px 346.06px;" id="elpz82qpg8mkr" class="animable"></path><path d="M310.06,380.9s-14.66-1-16-1-4.33-.34-4.33-.34l1,12s-3.67,15.67-3.33,19.67,2,2.67,6.33,2.67,7.67-.67,11-.67,8.67,3.67,17.33-.33,10.34-12.67,7-14-10.66-.67-12.66-1.34-6-1.66-6-2.66-1-6-1-6Z" style="fill: rgb(38, 50, 56); stroke: rgb(38, 50, 56); stroke-miterlimit: 10; transform-origin: 309.019px 397.164px;" id="el69uofgswnx7" class="animable"></path><path d="M329.17,399a14.59,14.59,0,0,1-8.77,11.27c-11,4.67-9.67-1.33-18.67-1.67a74.89,74.89,0,0,0-14.31,1,10.19,10.19,0,0,0,0,1.64c.33,4,2,2.67,6.33,2.67s7.67-.67,11-.67,8.67,3.67,17.33-.33S332.35,400.44,329.17,399Z" style="fill: rgb(255, 255, 255); stroke: rgb(38, 50, 56); stroke-miterlimit: 10; transform-origin: 309.033px 406.889px;" id="el3ky3so7t2lg" class="animable"></path><path d="M296.06,251.23s6,16.33,7.67,31-.67,26,.67,29.67,2,8,10.33,8,14.67-4,19-13.34,5-47.33,5-55-.67-18.66-.67-18.66S316.73,250.23,296.06,251.23Z" style="fill: rgb(146, 227, 169); stroke: rgb(38, 50, 56); stroke-miterlimit: 10; transform-origin: 317.395px 276.4px;" id="el8qeks81amcp" class="animable"></path><path d="M338.73,251.56c0-7.66-.67-18.66-.67-18.66s-14.71,11.94-31.54,16.57l-.19,2.2s14.67-2,22,.66c6.39,2.32,7.21,38,7.32,47.17C338.27,285.06,338.73,257.91,338.73,251.56Z" style="fill: rgb(38, 50, 56); stroke: rgb(38, 50, 56); stroke-miterlimit: 10; transform-origin: 322.53px 266.2px;" id="elrjaa630tf9p" class="animable"></path><path d="M329.67,246.33s.66,18-2.67,31.34S316.33,307,316.33,307s9.34-40.67,9.34-58.67" style="fill: rgb(38, 50, 56); stroke: rgb(38, 50, 56); stroke-miterlimit: 10; transform-origin: 323.027px 276.665px;" id="eletnd5zclu0e" class="animable"></path><path d="M304,210.28s-8.16-3.66-17.72,2-12.37,17.72-8.44,29.53,23.63,18.56,35.72,12.94,21.93-16,29.24-22.22,20.25-18.28,20.25-18.28-5.91,72.83-5.91,74.24-.28,6.75,0,11.53,1.69,5.9,1.69,5.9,9.28-.84,14.9-2,12.94-1.41,20.81-5.07,9.28-9.28,7-10.12-7.31-.28-10.68,0-6.19.28-7,.28h-3.66s-.56-7.31-.56-8.15S377,266.78,377,266.78v-3.61l12.23-59.36s1.41-9.56-1.69-12.37-9.28-5.07-19.68-2S304,210.28,304,210.28Z" style="fill: rgb(146, 227, 169); stroke: rgb(38, 50, 56); stroke-miterlimit: 10; transform-origin: 339.324px 246.945px;" id="elryhkwaxzwl" class="animable"></path><path d="M304,210.28s-9.68,6.05-11,12.05-2.67,8-2.67,8S282.35,216.22,304,210.28Z" style="fill: rgb(38, 50, 56); transform-origin: 296.446px 220.305px;" id="elltmj7ntgunk" class="animable"></path><path d="M374,197.62c-4.49,4.22-11,16.59-11,16.59s1.4-12.93,3.65-17.15" style="fill: none; stroke: rgb(38, 50, 56); stroke-miterlimit: 10; transform-origin: 368.5px 205.635px;" id="elq5ct6nfg63g" class="animable"></path><path d="M401.58,288.73c-2.25-.84-7.31-.28-10.68,0s-6.19.28-7,.28h-3.66s-2-10.12-2-11,5.35-5.9,5.35-5.9l-2.82-4.5-2.34.22-1.81-2.53,12.13-59.48c-14.43-7.68-25.47,6.07-29.15,11.57l3.46-3.21s-5.91,72.83-5.91,74.24-.28,6.75,0,11.53,1.69,5.9,1.69,5.9,9.28-.84,14.9-2,12.94-1.41,20.81-5.07S403.83,289.57,401.58,288.73Z" style="fill: rgb(255, 255, 255); stroke: rgb(38, 50, 56); stroke-miterlimit: 10; transform-origin: 379.787px 254.696px;" id="elql3vctiybts" class="animable"></path><path d="M401.58,288.73c-2.25-.84-7.31-.28-10.68,0s-6.19.28-7,.28h-3.66s-2-10.12-2-11c0-.54,2.19-2.81,3.77-4.37-5.21-.73-11.54-1.27-15.58-.41A48.94,48.94,0,0,0,358.1,276c-.57,7.18-1,12.12-1,12.48,0,1.41-.28,6.75,0,11.53s1.69,5.9,1.69,5.9,9.28-.84,14.9-2,12.94-1.41,20.81-5.07S403.83,289.57,401.58,288.73Z" style="fill: rgb(38, 50, 56); stroke: rgb(38, 50, 56); stroke-miterlimit: 10; transform-origin: 379.757px 289.35px;" id="el1qjq191an98" class="animable"></path><path d="M402.23,291.93a65,65,0,0,1-10.73,5.14c-6.11,2.16-25.21,5.42-33.71,6.82a4.35,4.35,0,0,0,1,2s9.28-.84,14.9-2,12.94-1.41,20.81-5.07C399,296.77,401.43,294,402.23,291.93Z" style="fill: rgb(255, 255, 255); stroke: rgb(38, 50, 56); stroke-miterlimit: 10; transform-origin: 380.01px 298.91px;" id="elm48mbj2e46" class="animable"></path><line x1="277.4" y1="123.67" x2="304.63" y2="181.35" style="fill: none; stroke: rgb(38, 50, 56); stroke-linecap: round; stroke-linejoin: round; stroke-width: 3px; transform-origin: 291.015px 152.51px;" id="el8wasxemgiuj" class="animable"></line><line x1="252.32" y1="143.37" x2="299.97" y2="184.22" style="fill: none; stroke: rgb(38, 50, 56); stroke-linecap: round; stroke-linejoin: round; stroke-width: 3px; transform-origin: 276.145px 163.795px;" id="el9agbuslg2a5" class="animable"></line><line x1="310.47" y1="181.8" x2="314.66" y2="168.81" style="fill: none; stroke: rgb(38, 50, 56); stroke-linecap: round; stroke-linejoin: round; stroke-width: 3px; transform-origin: 312.565px 175.305px;" id="elfoqf62xxzv" class="animable"></line><line x1="298.56" y1="186.94" x2="263.42" y2="187.44" style="fill: none; stroke: rgb(38, 50, 56); stroke-linecap: round; stroke-linejoin: round; stroke-width: 3px; transform-origin: 280.99px 187.19px;" id="elrkbw2ga987i" class="animable"></line><path d="M307.14,191.38s3.58,57,9.67,75.6,35.54,15.48,39.84,9.75" style="fill: none; stroke: rgb(38, 50, 56); stroke-linecap: round; stroke-linejoin: round; stroke-width: 3px; transform-origin: 331.895px 236.267px;" id="el38r309ogkci" class="animable"></path><path d="M378.52,280.29s7.88-4.78,5.91-10.68-10.41-5.34-18-3.09-12.93,6.18-12.65,9.28,2,6.46,3.09,6.46H358s-2.82-3.65,6.46-5.06S378,274.11,378.52,280.29Z" style="fill: rgb(255, 255, 255); stroke: rgb(38, 50, 56); stroke-miterlimit: 10; transform-origin: 369.258px 273.596px;" id="el46ujgl9zqyr" class="animable"></path><polyline points="396.06 93.56 378.55 273.73 379.92 381.55" style="fill: none; stroke: rgb(38, 50, 56); stroke-linecap: round; stroke-linejoin: round; stroke-width: 3px; transform-origin: 387.305px 237.555px;" id="elb6p4otcx34u" class="animable"></polyline><line x1="397.29" y1="84.46" x2="412.63" y2="17.17" style="fill: none; stroke: rgb(38, 50, 56); stroke-linecap: round; stroke-linejoin: round; stroke-width: 3px; transform-origin: 404.96px 50.815px;" id="elupjhb26c1ak" class="animable"></line><path d="M397.45,82.48s2.61-2.17,3,.43,1.52,11.49.43,12.57-8.67,2.39-9.75,1.74.87-4.34.87-4.34-3.47-1.95-3-2.81a33.08,33.08,0,0,1,2.39-3.26s-1.74-.65-1.74-2.16S397.45,82.48,397.45,82.48Z" style="fill: rgb(146, 227, 169); stroke: rgb(38, 50, 56); stroke-miterlimit: 10; transform-origin: 395.149px 89.5124px;" id="elaq4kdrvwbgt" class="animable"></path><path d="M378.12,94.27A35,35,0,0,1,381,89.63c.87-.86,4.77-6.28,8.67-6.5s7.8-3.25,7.8-3.25,2.17-.43,1.31,2-2.82,5.42-5.42,6.07a21,21,0,0,0-3.9,1.3A8.15,8.15,0,0,1,384,97.43" style="fill: rgb(146, 227, 169); stroke: rgb(38, 50, 56); stroke-miterlimit: 10; transform-origin: 388.551px 88.6403px;" id="el09iz1lowu7p" class="animable"></path><path d="M279,216.21s-16.11,29.28-9.15,35.5S285.94,211.08,279,216.21Z" style="fill: none; stroke: rgb(38, 50, 56); stroke-linecap: round; stroke-linejoin: round; stroke-width: 3px; transform-origin: 274.791px 234.048px;" id="elq50zx1fe97a" class="animable"></path><path d="M279,216.21S267.64,259,274.23,262,288.14,205.59,279,216.21Z" style="fill: none; stroke: rgb(38, 50, 56); stroke-linecap: round; stroke-linejoin: round; stroke-width: 3px; transform-origin: 277.732px 238.524px;" id="elsxdgaphisrh" class="animable"></path></g><defs>     <filter id="active" height="200%">         <feMorphology in="SourceAlpha" result="DILATED" operator="dilate" radius="2"></feMorphology>                <feFlood flood-color="#32DFEC" flood-opacity="1" result="PINK"></feFlood>        <feComposite in="PINK" in2="DILATED" operator="in" result="OUTLINE"></feComposite>        <feMerge>            <feMergeNode in="OUTLINE"></feMergeNode>            <feMergeNode in="SourceGraphic"></feMergeNode>        </feMerge>    </filter>    <filter id="hover" height="200%">        <feMorphology in="SourceAlpha" result="DILATED" operator="dilate" radius="2"></feMorphology>                <feFlood flood-color="#ff0000" flood-opacity="0.5" result="PINK"></feFlood>        <feComposite in="PINK" in2="DILATED" operator="in" result="OUTLINE"></feComposite>        <feMerge>            <feMergeNode in="OUTLINE"></feMergeNode>            <feMergeNode in="SourceGraphic"></feMergeNode>        </feMerge>            <feColorMatrix type="matrix" values="0   0   0   0   0                0   1   0   0   0                0   0   0   0   0                0   0   0   1   0 "></feColorMatrix>    </filter></defs></svg>